<svg xmlns="http://www.w3.org/2000/svg" width="50" height="50" viewBox="0 0 50 50">
  <defs>
    <style>
      .cls-1 {
        fill: #fff;
      }

      .cls-2 {
        fill: #343675;
      }

      .cls-3 {
        fill: #343477;
      }

      .cls-4 {
        fill: #3efffa;
      }

      .cls-5 {
        fill: #ff808c;
      }

      .cls-6 {
        fill: #343279;
      }

      .cls-7 {
        fill: #ffd150;
      }

      .cls-8 {
        fill: #c3ddff;
      }

      .cls-9 {
        fill: #a4ccff;
      }

      .cls-10 {
        fill: #5d5360;
      }

      .cls-11 {
        fill: #8bb3ea;
      }

      .cls-12 {
        fill: #739ad6;
      }

      .cls-13 {
        fill: #342f7b;
      }
    </style>
  </defs>
  <g id="Group_155890" data-name="Group 155890" transform="translate(-728 -179)">
    <path id="Rectangle_27" data-name="Rectangle 27" class="cls-1" d="M0,0H50V50H0Z" transform="translate(728 179)"/>
    <g id="Group_155883" data-name="Group 155883" transform="translate(-2 -1)">
      <rect id="Rectangle_83601" data-name="Rectangle 83601" class="cls-1" width="45" height="45" transform="translate(733 183)"/>
      <g id="Group_155891" data-name="Group 155891" transform="translate(733 189.75)">
        <g id="Group_155881" data-name="Group 155881" transform="translate(2.788)">
          <path id="Path_268266" data-name="Path 268266" class="cls-1" d="M156.11,202.69h28.157v18.571H156.11Z" transform="translate(-155.408 -201.989)"/>
          <path id="Path_268267" data-name="Path 268267" class="cls-2" d="M176.308,214.024H148.152a.7.7,0,0,1-.7-.7V194.752a.7.7,0,0,1,.7-.7h28.156a.7.7,0,0,1,.7.7v18.569A.7.7,0,0,1,176.308,214.024Zm-27.455-1.4h26.753V195.453H148.854Z" transform="translate(-147.45 -194.05)"/>
          <circle id="Ellipse_11132" data-name="Ellipse 11132" class="cls-1" cx="3.269" cy="3.269" r="3.269" transform="translate(6.306 3.811)"/>
          <path id="Path_268269" data-name="Path 268269" class="cls-3" d="M220.513,240.267a3.973,3.973,0,1,1,3.973-3.973A3.973,3.973,0,0,1,220.513,240.267Zm0-6.54a2.568,2.568,0,1,0,2.568,2.568,2.568,2.568,0,0,0-2.568-2.568Z" transform="translate(-210.938 -229.215)"/>
          <path id="Path_268270" data-name="Path 268270" class="cls-4" d="M193.17,322.27H195.2a5.283,5.283,0,0,1,5.283,5.283v3.582H187.89v-3.583a5.283,5.283,0,0,1,5.279-5.282Z" transform="translate(-184.611 -311.872)"/>
          <g id="Group_155873" data-name="Group 155873" transform="translate(2.577 4.842)">
            <path id="Path_268145" data-name="Path 268145" class="cls-3" d="M192.526,323.878H179.932a.7.7,0,0,1-.7-.7v-3.582a5.992,5.992,0,0,1,5.984-5.984h2.027a5.992,5.992,0,0,1,5.984,5.984v3.582A.7.7,0,0,1,192.526,323.878Zm-11.892-1.4h11.19v-2.88a4.586,4.586,0,0,0-4.581-4.581h-2.031a4.585,4.585,0,0,0-4.581,4.581Z" transform="translate(-179.23 -308.756)"/>
            <path id="Path_268146" data-name="Path 268146" class="cls-3" d="M380.236,255.159h-4.653a.7.7,0,0,1,0-1.4h4.653a.7.7,0,1,1,0,1.4Z" transform="translate(-359.038 -253.755)"/>
            <path id="Path_268147" data-name="Path 268147" class="cls-3" d="M382.441,291.524h-6.858a.7.7,0,0,1,0-1.4h6.858a.7.7,0,0,1,0,1.4Z" transform="translate(-359.038 -287.171)"/>
            <path id="Path_268148" data-name="Path 268148" class="cls-3" d="M407.436,327.884h-4.653a.7.7,0,0,1,0-1.4h4.653a.7.7,0,0,1,0,1.4Z" transform="translate(-384.032 -320.583)"/>
            <path id="Path_268149" data-name="Path 268149" class="cls-3" d="M423.351,364.234H420.1a.7.7,0,0,1,0-1.4h3.249a.7.7,0,0,1,0,1.4Z" transform="translate(-399.948 -353.986)"/>
          </g>
          <path id="Path_268273" data-name="Path 268273" class="cls-5" d="M242.614,427.388l-.186-2.8-2.757.538,4.338-4.233,2.944,2.266Z" transform="translate(-232.192 -402.495)"/>
          <path id="Path_268274" data-name="Path 268274" class="cls-6" d="M234.694,420.156a.7.7,0,0,1-.7-.655l-.134-2.008-1.975.385a.7.7,0,0,1-.624-1.191l4.338-4.233a.7.7,0,0,1,.918-.053l2.942,2.266a.7.7,0,0,1,.062,1.059l-4.34,4.23A.7.7,0,0,1,234.694,420.156Zm-.186-4.207a.7.7,0,0,1,.7.655l.085,1.284,2.669-2.6-1.82-1.4-2.22,2.167.447-.085a.7.7,0,0,1,.135-.015Z" transform="translate(-224.27 -394.56)"/>
          <path id="Path_268275" data-name="Path 268275" class="cls-5" d="M334.318,427.388l.186-2.8,2.757.538-4.338-4.233-2.944,2.266Z" transform="translate(-315.179 -402.495)"/>
          <path id="Path_268276" data-name="Path 268276" class="cls-6" d="M326.4,420.11a.7.7,0,0,1-.487-.2l-4.341-4.235a.7.7,0,0,1,.062-1.054l2.944-2.271a.7.7,0,0,1,.918.053l4.338,4.233a.7.7,0,0,1-.624,1.191l-1.975-.385-.134,2.008a.7.7,0,0,1-.7.655Zm-3.269-4.872,2.669,2.6.085-1.284a.7.7,0,0,1,.834-.641l.451.088-2.22-2.167Z" transform="translate(-307.258 -394.514)"/>
          <circle id="Ellipse_11133" data-name="Ellipse 11133" class="cls-7" cx="5.005" cy="5.005" r="5.005" transform="translate(9.486 11.033)"/>
          <path id="Path_268271" data-name="Path 268271" class="cls-6" d="M261.477,332.844a5.707,5.707,0,1,1,5.707-5.707A5.707,5.707,0,0,1,261.477,332.844Zm0-10.01a4.3,4.3,0,1,0,4.3,4.3,4.3,4.3,0,0,0-4.3-4.3Z" transform="translate(-246.987 -311.1)"/>
          <circle id="Ellipse_11134" data-name="Ellipse 11134" class="cls-1" cx="1.839" cy="1.839" r="1.839" transform="translate(12.651 14.199)"/>
          <path id="Path_268272" data-name="Path 268272" class="cls-6" d="M297.361,365.571a2.54,2.54,0,1,1,2.54-2.54A2.541,2.541,0,0,1,297.361,365.571Zm0-3.678a1.135,1.135,0,1,0,1.135,1.135A1.135,1.135,0,0,0,297.361,361.893Z" transform="translate(-282.87 -346.993)"/>
        </g>
        <g id="Group_155880" data-name="Group 155880" transform="translate(0 18.221)">
          <g id="sedan" transform="translate(0 0)">
            <g id="Group_155878" data-name="Group 155878" transform="translate(0.643 0.643)">
              <path id="Path_268277" data-name="Path 268277" class="cls-8" d="M9.107,174.442c3.987-1.806,10.379-1.806,10.379-1.806l5.5-3.416a9.337,9.337,0,0,1,4.921-1.4h6.282a10.075,10.075,0,0,1,4.414,1.016l3.346,1.632a10.775,10.775,0,0,0,3.418,1.009l2.608.318a1.387,1.387,0,0,1,1.235,1.364v4.127a2.07,2.07,0,0,1-1.507,1.976l-5.543,1.622H12.272L7.5,179.512v-2.584A2.73,2.73,0,0,1,9.107,174.442Z" transform="translate(-7.5 -167.823)"/>
              <path id="Path_268278" data-name="Path 268278" class="cls-9" d="M7.5,220.047H9.073a.7.7,0,0,0,.683-.536,5.675,5.675,0,0,1,11,0,.652.652,0,0,0,.683.483H36.57a.652.652,0,0,0,.683-.483A5.682,5.682,0,0,1,47.8,218.3a.7.7,0,0,0,.627.381.717.717,0,0,0,.2-.029.642.642,0,0,0,.47-.616v-5.12l.88.107a1.388,1.388,0,0,1,1.235,1.365v4.127a2.07,2.07,0,0,1-1.507,1.976l-5.543,1.622H8.91a1.393,1.393,0,0,1-1.41-1.375Z" transform="translate(-7.5 -209.045)"/>
              <circle id="Ellipse_11135" data-name="Ellipse 11135" class="cls-10" cx="3.438" cy="3.438" r="3.438" transform="translate(32.024 8.251)"/>
              <circle id="Ellipse_11136" data-name="Ellipse 11136" class="cls-10" cx="3.438" cy="3.438" r="3.438" transform="translate(4.126 8.251)"/>
              <path id="Path_268279" data-name="Path 268279" class="cls-11" d="M103.717,169.221a8.939,8.939,0,0,1,4.8-1.4h6.126a9.626,9.626,0,0,1,4.305,1.016l2.552,1.276-1.514,1.514-21.635,1.007Z" transform="translate(-86.011 -167.823)"/>
              <path id="Path_268280" data-name="Path 268280" class="cls-12" d="M131.673,194.621H116.311l2.633-1.675a6.866,6.866,0,0,1,3.692-1.075h6.126a7.6,7.6,0,0,1,3.383.8l1.933.967A3.436,3.436,0,0,1,131.673,194.621Z" transform="translate(-100.104 -189.808)"/>
            </g>
            <g id="Group_155879" data-name="Group 155879" transform="translate(0)">
              <path id="Path_268281" data-name="Path 268281" class="cls-13" d="M92.141,293.188a.641.641,0,0,1-.455-.188l-.972-.973a.643.643,0,0,1,.91-.91l.972.973a.643.643,0,0,1-.455,1.1Z" transform="translate(-55.751 -279.726)"/>
              <path id="Path_268282" data-name="Path 268282" class="cls-13" d="M404.253,293a.643.643,0,1,1-.91-.91l.972-.972a.643.643,0,0,1,.91.91Z" transform="translate(-395.894 -279.725)"/>
              <path id="Path_268283" data-name="Path 268283" class="cls-13" d="M1.988,167c3.723-1.687,9.323-1.849,10.454-1.864l5.34-3.317a9.979,9.979,0,0,1,5.271-1.5h6.277a10.79,10.79,0,0,1,4.706,1.084l3.344,1.632a10.064,10.064,0,0,0,3.2.946l2.606.318a2.039,2.039,0,0,1,1.812,2v4.106a2.728,2.728,0,0,1-2.011,2.6l-3.114.868a4.221,4.221,0,0,1-7.621.792H12.042a4.2,4.2,0,0,1-3.632,2.063,4.083,4.083,0,1,1,0-8.163,4.137,4.137,0,0,1,4.182,4.081,3.987,3.987,0,0,1-.069.732H31.773a3.989,3.989,0,0,1-.069-.732,4.185,4.185,0,0,1,8.36-.164l2.563-.715a1.431,1.431,0,0,0,1.055-1.365v-1.926h-.75a.644.644,0,1,1,0-1.287h.75v-.893a.739.739,0,0,0-.657-.726l-2.606-.318a11.4,11.4,0,0,1-3.628-1.072l-.3-.147-1.219,1.185a4.207,4.207,0,0,1-2.957,1.2H30.954a.644.644,0,1,1,0-1.287h1.359a2.972,2.972,0,0,0,.342-.02l-.728-3.14a9.452,9.452,0,0,0-2.6-.366H25.977v3.527h2.159a.644.644,0,1,1,0,1.287h-15.5c-.062,0-6.29.022-10.093,1.746a2.072,2.072,0,0,0-.592.405h.822a.644.644,0,1,1,0,1.287H1.33a2.067,2.067,0,0,0-.012.211v2.283c0,.637.287,1.033.75,1.033a.644.644,0,1,1,0,1.287,1.972,1.972,0,0,1-1.494-.66A2.444,2.444,0,0,1,0,172.354v-2.283A3.382,3.382,0,0,1,1.988,167Zm6.421,2.859a2.8,2.8,0,1,0,2.864,2.795A2.833,2.833,0,0,0,8.409,169.861Zm27.477,0a2.8,2.8,0,1,0,2.864,2.795A2.833,2.833,0,0,0,35.886,169.861ZM33.9,164.667a2.879,2.879,0,0,0,.435-.349l.9-.883-1.8-.877-.037-.018Zm-9.244-3.058H23.053a8.64,8.64,0,0,0-4.563,1.3l-3.59,2.23h9.759Z" transform="translate(0 -160.323)"/>
              <path id="Path_268284" data-name="Path 268284" class="cls-13" d="M183.422,280.564a.643.643,0,0,1,0,1.287h-14.44a.643.643,0,1,1,0-1.287Z" transform="translate(-154.059 -270.25)"/>
            </g>
          </g>
        </g>
      </g>
    </g>
  </g>
</svg>
