<svg xmlns="http://www.w3.org/2000/svg" width="50" height="50" viewBox="0 0 50 50">
    <defs>
        <clipPath id="sd625g2joa">
            <path data-name="Rectangle 83602" transform="translate(606 188)" style="fill:#fff" d="M0 0h40v40H0z"/>
        </clipPath>
    </defs>
    <g data-name="Group 155888">
        <path data-name="Rectangle 27" d="M0 0h50v50H0z" style="fill:#fff"/>
        <g data-name="Mask Group 128413" transform="translate(-601 -183)" style="clip-path:url(#sd625g2joa)">
            <path d="M10.583 285.191a1.341 1.341 0 0 1 2.473.618 2.417 2.417 0 0 1-2.473 2.473z" transform="translate(619.742 -84.399)" style="fill:#fdce97"/>
            <path d="M7.765 285.191a1.341 1.341 0 0 0-2.473.618 2.417 2.417 0 0 0 2.473 2.473z" transform="translate(612.667 -84.399)" style="fill:#fdce97"/>
            <path d="M2.91 301.694v-4.947a7.4 7.4 0 0 1 7.42-7.42h11.131a7.4 7.4 0 0 1 7.42 7.42v4.947z" transform="translate(609.483 -78.022)" style="fill:#ff6b6b"/>
            <path d="M7.144 291.185v-3.71h6.184v3.71l-3.092 2.473z" transform="translate(615.143 -80.499)" style="fill:#fdce97"/>
            <path d="M16.244 284.3v4.328a4.947 4.947 0 1 1-9.894 0V284.3z" transform="translate(614.082 -84.744)" style="fill:#fdd5a6"/>
            <path d="M6 291.973h14.84a1.234 1.234 0 0 1 1.237 1.237v8.657H4.763v-8.657A1.234 1.234 0 0 1 6 291.973z" transform="translate(611.959 -74.484)" style="fill:#e6b57c"/>
            <path d="m6.879 296.92 1.237 1.237 1.237-1.237 1.237 1.237 1.237-1.237 1.237 1.237 1.236-1.237v-4.947H6.879z" transform="translate(614.79 -74.484)" style="fill:#fdd5a6"/>
            <g data-name="Group 155870">
                <path d="m6.35 290.035 1.855 3.71 3.095-1.855-3.713-3.09z" transform="translate(614.082 -78.73)" style="fill:#e86262"/>
                <path d="m13.414 290.035-1.855 3.71-3.092-1.855 3.71-3.092z" transform="translate(616.912 -78.73)" style="fill:#e86262"/>
                <path d="M18.188 285.008s-.618 1.855-1.855 1.855H7.676c-1.237 0-1.855-1.855-1.855-1.855A15.006 15.006 0 0 1 12 283.771a15.006 15.006 0 0 1 6.188 1.237z" transform="translate(613.374 -85.452)" style="fill:#e86262"/>
            </g>
            <path d="M12 287.662a15.005 15.005 0 0 0-6.179 1.238v-3.092a4.936 4.936 0 0 1 4.947-4.947h2.473a4.936 4.936 0 0 1 4.947 4.947v3.092A15.005 15.005 0 0 0 12 287.662z" transform="translate(613.374 -89.343)" style="fill:#ff6b6b"/>
            <path d="M2.91 294.619h4.329v3.71H2.91z" transform="translate(609.483 -70.947)" style="fill:#fdd5a6"/>
            <path d="M12.171 294.619H16.5v3.71h-4.329z" transform="translate(621.865 -70.947)" style="fill:#fdd5a6"/>
            <path d="m12.1 299.329-1.238 1.238a.618.618 0 0 0-.114.711l1.852 3.712a.618.618 0 0 0 .872.251l2.775-1.663 2.775 1.663a.619.619 0 0 0 .867-.251l1.859-3.711a.618.618 0 0 0-.12-.711l-1.228-1.239a.619.619 0 0 0-.438-.182v-1.427a5.546 5.546 0 0 0 1.825-3.575 3.011 3.011 0 0 0 2.5-3.048 1.9 1.9 0 0 0-1.237-1.714v-3.223a5.565 5.565 0 0 0-5.564-5.564h-2.473a5.565 5.565 0 0 0-5.564 5.564l.022 3.105c0 .825 1.279.194 1.279-.631l-.064-2.475a4.3 4.3 0 0 1 4.327-4.326h2.475a4.3 4.3 0 0 1 4.326 4.326v2.176a16.675 16.675 0 0 0-5.564-.938 15.744 15.744 0 0 0-6.459 1.3.613.613 0 0 0-.32.684 1.886 1.886 0 0 0-1.26 1.705v.021a3.007 3.007 0 0 0 2.5 3.037 5.546 5.546 0 0 0 1.824 3.574v1.427a.62.62 0 0 0-.435.182zm4.149-10.695a15.678 15.678 0 0 1 5.361.936c-.256.5-.66.927-1.034.917h-8.653c-.472 0-.839-.582-1.041-.909a15.369 15.369 0 0 1 5.368-.944zm-5.564 2.634v1.591a1.761 1.761 0 0 1-1.236-1.736.678.678 0 0 1 .551-.623 3.371 3.371 0 0 0 .686.769zm12.364-.145a1.761 1.761 0 0 1-1.236 1.736v-1.589a3.292 3.292 0 0 0 .679-.758.65.65 0 0 1 .557.612zm-11.127.6h8.655v1.857a4.327 4.327 0 0 1-8.655 0zm1.854 6.836a5.518 5.518 0 0 0 4.948 0v1.428l-2.475 2.064-2.473-2.063zm-1.2 2.042 2.611 2.173-1.777 1.066-1.355-2.716zm7.344 0 .525.521-1.356 2.716-1.775-1.064zm3.617 1.234a6.779 6.779 0 0 1 5.08 6.585v4.327h-3.092v-4.327a1.861 1.861 0 0 0-1.853-1.853H8.828a1.862 1.862 0 0 0-1.854 1.853v4.327H3.883v-4.327a6.778 6.778 0 0 1 5.083-6.585.619.619 0 0 0-.309-1.2 8.03 8.03 0 0 0-6.011 7.783v8.657a.618.618 0 0 0 .618.618h25.972a.618.618 0 0 0 .618-.618v-8.657a8.029 8.029 0 0 0-6.006-7.782.618.618 0 0 0-.31 1.2zM8.828 307.8H19.34v4.076l-.616.617-.8-.8a.618.618 0 0 0-.876 0l-.8.8-.8-.8a.619.619 0 0 0-.877 0l-.8.8-.616-.617v-4.514a.619.619 0 0 0-1.238 0v4.77a.62.62 0 0 0 .179.438l1.237 1.232a.619.619 0 0 0 .877 0l.8-.793.8.793a.619.619 0 0 0 .877 0l.8-.793.8.793a.619.619 0 0 0 .877 0l1.237-1.232a.618.618 0 0 0 .178-.438V307.8h3.1a.6.6 0 0 1 .616.621v8.039H8.212v-8.039a.6.6 0 0 1 .616-.621zm-4.946 6.185h3.092v2.475H3.883zm21.643 0h3.092v2.475h-3.092z" transform="translate(609.129 -89.697)" style="fill:#343a71"/>
            <path data-name="Path 268285" d="M33.664 310.535a5.573 5.573 0 0 0-2.468-2.45 10.418 10.418 0 0 0-4.258-.958" transform="translate(603.431 -95.921)" style="fill:none;stroke:#343873;stroke-linecap:round;stroke-width:1.2px"/>
            <path data-name="Path 268286" d="M26.939 310.535a5.573 5.573 0 0 1 2.468-2.45 10.418 10.418 0 0 1 4.258-.958" transform="translate(586.724 -95.921)" style="fill:none;stroke:#343873;stroke-linecap:round;stroke-width:1.2px"/>
        </g>
    </g>
</svg>
