<svg xmlns="http://www.w3.org/2000/svg" width="50" height="50" viewBox="0 0 50 50">
  <defs>
    <style>
      .cls-1 {
        fill: #fff;
      }

      .cls-2 {
        fill: none;
      }

      .cls-3 {
        fill: #0bcdff;
      }

      .cls-4 {
        fill: #d4e1f4;
      }

      .cls-5 {
        fill: #333a60;
      }
    </style>
  </defs>
  <g id="i_finddoctors" transform="translate(-173 -285)">
    <path id="Rectangle_27" data-name="Rectangle 27" class="cls-1" d="M0,0H50V50H0Z" transform="translate(173 285)"/>
    <g id="Hotels" transform="translate(71)">
      <path id="Rectangle_6234" class="cls-2" d="M0,0H50V50H0Z" transform="translate(102 285)"/>
      <g id="Group_13184" transform="translate(102 285)">
        <g id="daily-needs-icn">
          <path id="Rectangle_91" class="cls-2" d="M0,0H50V50H0Z"/>
        </g>
        <path id="Rectangle_27-2" data-name="Rectangle_27" class="cls-2" d="M0,0H50V50H0Z"/>
      </g>
      <g id="Group_13640" data-name="Group 13640" transform="translate(-295.821 -380.364)">
        <circle id="Ellipse_326" data-name="Ellipse 326" class="cls-3" cx="8.982" cy="8.982" r="8.982" transform="translate(425.348 674.57)"/>
        <path id="Path_5884" data-name="Path 5884" class="cls-4" d="M418.9,706.783c-2.383-2.428-2.866-11.054-2.777-15.768.03-1.562-.911-3.683-1.908-5.929-.917-2.067-1.866-4.205-1.866-5.607a8.394,8.394,0,0,1,1.379-4.842c-2.8.938-4.564,3.61-4.564,7.231,0,1.4.949,3.539,1.866,5.607,1,2.246,1.937,4.367,1.908,5.929-.089,4.714.394,13.339,2.777,15.767a1.772,1.772,0,0,0,1.293.605c.057,0,.588-.065,1.617-2.32.1-.21.192-.431.289-.66Z" transform="translate(-1.765 -2.408)"/>
        <path id="Path_5885" data-name="Path 5885" class="cls-4" d="M459.134,728.964c-.591-1.318-1.21-3.035-1.864-4.852-1.992-5.53-3.326-8.888-5.039-8.888-.833,0-1.541.937-2.324,2.684,1.334.931,2.53,4.019,4.178,8.592.655,1.818,1.274,3.535,1.864,4.852.835,1.861,1.242,2.047,1.3,2.065.983-.006,1.823-1.132,2.467-3.283C459.554,729.847,459.36,729.467,459.134,728.964Z" transform="translate(-25.716 -26.267)"/>
        <path id="Path_5886" data-name="Path 5886" class="cls-5" d="M439.491,674.525a7.652,7.652,0,0,0-7.05-3.975,18.121,18.121,0,0,0-4.749,1.1,9.463,9.463,0,0,1-8.561-.005,18.045,18.045,0,0,0-4.746-1.1,7.832,7.832,0,0,0-5.972,2.512,9.316,9.316,0,0,0-2.249,6.407c0,1.681,1.006,3.948,1.982,6.146.893,2.014,1.817,4.1,1.792,5.364a64.977,64.977,0,0,0,.415,8.526c.506,4.1,1.428,6.855,2.739,8.192a3.066,3.066,0,0,0,2.235,1c1.83,0,3.037-3.216,5.014-8.9.667-1.918,1.3-3.731,1.909-5.116a5.182,5.182,0,0,1,1.19-1.995c.124.052.631.371,1.523,2.258.748,1.583,1.51,3.7,2.247,5.747,1.9,5.261,2.875,7.79,4.4,7.79,2.043,0,3.444-2.12,4.283-6.481a73.951,73.951,0,0,0,.958-9.773l.02-.4a.763.763,0,1,0-1.524-.078l-.021.416a72.683,72.683,0,0,1-.933,9.544c-.64,3.328-1.608,5.186-2.729,5.243-.09-.062-.463-.391-1.159-1.943-.588-1.31-1.205-3.024-1.859-4.837-2.016-5.6-3.347-9.024-5.233-9.024-1.609,0-2.655,2.794-4.518,8.155-.7,2.027-1.433,4.122-2.139,5.669-.948,2.077-1.439,2.2-1.43,2.2a1.577,1.577,0,0,1-1.146-.544c-2.333-2.377-2.806-10.937-2.718-15.619.031-1.608-.919-3.75-1.925-6.017-.909-2.047-1.848-4.165-1.848-5.522,0-4.422,2.69-7.392,6.695-7.392a17.74,17.74,0,0,1,4.287,1.027,10.814,10.814,0,0,0,9.487,0,17.728,17.728,0,0,1,4.283-1.023,6.11,6.11,0,0,1,5.712,3.184.763.763,0,0,0,1.338-.735Z" transform="translate(0)"/>
        <path id="Path_5887" data-name="Path 5887" class="cls-5" d="M461.553,676.851h0a9.753,9.753,0,1,0,9.754,9.753A9.692,9.692,0,0,0,461.552,676.851Zm8.226,9.753a8.249,8.249,0,0,1-8.227,8.227h0a8.226,8.226,0,1,1,8.227-8.227Z" transform="translate(-26.828 -3.709)"/>
        <path id="Path_5888" data-name="Path 5888" class="cls-1" d="M280.713,365.52h-2.6v-2.6a.564.564,0,0,0-.563-.563h-1.861a.564.564,0,0,0-.563.563v2.6h-2.6a.564.564,0,0,0-.563.563v1.862a.564.564,0,0,0,.563.563h2.6v2.6a.564.564,0,0,0,.563.563h1.861a.564.564,0,0,0,.563-.563v-2.6h2.6a.564.564,0,0,0,.563-.563v-1.862A.564.564,0,0,0,280.713,365.52Z" transform="translate(158.022 316.085)"/>
      </g>
    </g>
  </g>
</svg>
