<svg xmlns="http://www.w3.org/2000/svg" width="50" height="50" viewBox="0 0 50 50">
    <path data-name="Rectangle 27" d="M0 0h50v50H0z" style="fill:#fff"/>
    <path d="M0 0h50v50H0z" style="fill:none"/>
    <path d="M0 0h50v50H0z" style="fill:none"/>
    <path data-name="Rectangle_27" d="M0 0h50v50H0z" style="fill:none"/>
    <g>
        <g data-name="Group 15226">
            <path data-name="Path 14833" d="m61.569 87.478 16.284 13.386v19.693H44v-19.693l16.284-13.386a1.021 1.021 0 0 1 1.285 0z" transform="translate(-36.775 -76.569)" style="fill:#efedef"/>
        </g>
        <g data-name="Group 15227">
            <path data-name="Path 14834" d="M257.1 100.795v19.693h-1.6V102.24a1.183 1.183 0 0 0-.431-.91l-16.021-13.171a.982.982 0 0 0-.248-.152l.726-.6a1.012 1.012 0 0 1 1.293 0z" transform="translate(-216.025 -76.5)" style="fill:#e5e1e5"/>
        </g>
        <g data-name="Group 15228">
            <path data-name="Path 14835" d="m28.267 7.739 18.87 15.837a.832.832 0 0 1 .3.631v3.911a.817.817 0 0 1-1.341.631L28.259 14.093a1.012 1.012 0 0 0-1.293 0L9.141 28.749a.821.821 0 0 1-1.341-.63v-3.912a.818.818 0 0 1 .3-.631L26.958 7.739a1.014 1.014 0 0 1 1.309 0z" transform="translate(-3.464 -3.185)" style="fill:#5f99d7"/>
        </g>
        <g data-name="Group 15229">
            <path data-name="Path 14836" d="M257.225 24.2v1.94a.827.827 0 0 0-.176-.2L236.63 8.793a1.1 1.1 0 0 0-.83-.247l.958-.806a1.014 1.014 0 0 1 1.309 0l18.87 15.837a.808.808 0 0 1 .288.623z" transform="translate(-213.264 -3.185)" style="fill:#3c87d0"/>
        </g>
        <g data-name="Group 15242">
            <g data-name="Group 15235">
                <g data-name="Group 15230">
                    <path data-name="Path 14837" d="M195.743 320.754a6.941 6.941 0 0 0-2.73-2.315 4.969 4.969 0 0 0-4.965 0 7.073 7.073 0 0 0-2.73 2.315 2.82 2.82 0 0 0 .176 3.361 2.852 2.852 0 0 0 1.74.75 8.635 8.635 0 0 0 1.924-.1 7.307 7.307 0 0 1 1.908-.112 12.36 12.36 0 0 0 2.762.208 2.852 2.852 0 0 0 1.74-.75 2.822 2.822 0 0 0 .176-3.361z" transform="translate(-166.382 -288.693)" style="fill:#ac5e2e"/>
                </g>
                <g data-name="Group 15233">
                    <g data-name="Group 15231" transform="translate(15.703 24.598)">
                        <circle data-name="Ellipse 1031" cx="2.075" cy="2.075" r="2.075" style="fill:#ac5e2e"/>
                    </g>
                    <g data-name="Group 15232" transform="translate(28.443 24.598)">
                        <circle data-name="Ellipse 1032" cx="2.075" cy="2.075" r="2.075" style="fill:#ac5e2e"/>
                    </g>
                </g>
                <g data-name="Group 15234" transform="translate(21.905 22.187)">
                    <circle data-name="Ellipse 1033" cx="2.243" cy="2.243" r="2.243" style="fill:#ac5e2e"/>
                </g>
            </g>
            <g data-name="Group 15241">
                <g data-name="Group 15236">
                    <path data-name="Path 14838" d="M257.816 324.041a2.833 2.833 0 0 1-1.74.75 6.506 6.506 0 0 1-1.365-.024 2.679 2.679 0 0 0 1.2-.679 3.025 3.025 0 0 0 .192-3.584 7.452 7.452 0 0 0-2.914-2.475 5.975 5.975 0 0 0-.686-.327 5.048 5.048 0 0 1 2.762.655 7.074 7.074 0 0 1 2.73 2.315 2.833 2.833 0 0 1-.179 3.369z" transform="translate(-228.631 -288.62)" style="fill:#9e5528"/>
                </g>
                <g data-name="Group 15239">
                    <g data-name="Group 15237">
                        <path data-name="Path 14839" d="M160.048 263.767a2.077 2.077 0 0 1-3.648 1.357 2.073 2.073 0 0 0 2.036-2.075 2.052 2.052 0 0 0-.5-1.349h.032a2.071 2.071 0 0 1 2.083 2.067z" transform="translate(-140.202 -237.094)" style="fill:#9e5528"/>
                    </g>
                    <g data-name="Group 15238">
                        <path data-name="Path 14840" d="M319.748 263.767a2.077 2.077 0 0 1-3.648 1.357 2.073 2.073 0 0 0 2.035-2.075 2.053 2.053 0 0 0-.5-1.349h.032a2.071 2.071 0 0 1 2.083 2.067z" transform="translate(-287.154 -237.094)" style="fill:#9e5528"/>
                    </g>
                </g>
                <g data-name="Group 15240">
                    <path data-name="Path 14841" d="M239.2 233.643a2.243 2.243 0 0 1-3.9 1.517h.04a2.243 2.243 0 0 0 1.652-3.76 2.252 2.252 0 0 1 2.2 2.243z" transform="translate(-212.804 -209.213)" style="fill:#9e5528"/>
                </g>
            </g>
        </g>
        <g data-name="Group 15248">
            <g data-name="Group 15243">
                <path data-name="Path 14842" d="M51.359 27.214h5.907a.358.358 0 0 0 .359-.359v-2a.358.358 0 0 0-.359-.359h-5.907a.358.358 0 0 0-.359.359v2a.368.368 0 0 0 .359.359z" transform="translate(-43.216 -18.828)" style="fill:#5f99d7"/>
            </g>
            <g data-name="Group 15244">
                <path data-name="Path 14843" d="M112.192 24.859v2a.358.358 0 0 1-.359.359H110.3a.358.358 0 0 0 .359-.359v-2a.358.358 0 0 0-.359-.359h1.533a.358.358 0 0 1 .359.359z" transform="translate(-97.782 -18.828)" style="fill:#3c87d0"/>
            </g>
            <g data-name="Group 15245">
                <path data-name="Path 14844" d="M66.961 63.018V58.5H62.1v8.605z" transform="translate(-53.43 -50.114)" style="fill:#c9bfc8"/>
            </g>
            <g data-name="Group 15246">
                <path data-name="Path 14845" d="M103.86 58.5v4.526l-1.66 1.4V58.5z" transform="translate(-90.329 -50.114)" style="fill:#baafb9"/>
            </g>
            <g data-name="Group 15247">
                <path data-name="Path 14846" d="M189.282 313.542a7.409 7.409 0 0 0-2.953-2.53 5.593 5.593 0 0 0-5.548 0 7.527 7.527 0 0 0-2.953 2.53 3.391 3.391 0 0 0 .263 4.087 3.439 3.439 0 0 0 2.1.926 9.249 9.249 0 0 0 2.059-.1 7.689 7.689 0 0 1 1.764-.112 18.8 18.8 0 0 0 2.315.24 3.738 3.738 0 0 0 2.682-.95 3.381 3.381 0 0 0 .271-4.091zm-1.11 3.249a2.241 2.241 0 0 1-1.373.575 12.062 12.062 0 0 1-2.634-.208 8.478 8.478 0 0 0-2.059.112 7.991 7.991 0 0 1-1.788.1 1.939 1.939 0 0 1-1.461-3.209 6.492 6.492 0 0 1 2.506-2.107 4.347 4.347 0 0 1 4.382 0 6.424 6.424 0 0 1 2.506 2.107 2.212 2.212 0 0 1-.08 2.634z" transform="translate(-159.411 -281.792)" style="fill:#333a60"/>
                <path data-name="Path 14847" d="M147.948 256.774a2.674 2.674 0 1 0-2.674 2.674 2.674 2.674 0 0 0 2.674-2.674zm-2.666 1.477a1.477 1.477 0 1 1 1.477-1.477 1.479 1.479 0 0 1-1.477 1.477z" transform="translate(-127.504 -230.101)" style="fill:#333a60"/>
                <path data-name="Path 14848" d="M304.974 259.448a2.674 2.674 0 1 0-2.674-2.674 2.674 2.674 0 0 0 2.674 2.674zm0-4.151a1.477 1.477 0 1 1-1.477 1.477 1.479 1.479 0 0 1 1.477-1.474z" transform="translate(-274.456 -230.101)" style="fill:#333a60"/>
                <path data-name="Path 14849" d="M223.242 229.675a2.838 2.838 0 1 0-2.842-2.834 2.848 2.848 0 0 0 2.842 2.834zm0-4.486a1.644 1.644 0 1 1-1.644 1.644 1.642 1.642 0 0 1 1.644-1.644z" transform="translate(-199.094 -202.403)" style="fill:#333a60"/>
                <path data-name="Path 14850" d="M38.14 36.113V21.825l.567.471a1.423 1.423 0 0 0 2.323-1.1v-3.913a1.416 1.416 0 0 0-.5-1.086L21.657.352a1.616 1.616 0 0 0-2.075 0L10.6 7.9V5.237a.956.956 0 0 0 .878-.95v-2a.961.961 0 0 0-.958-.958H5.828a.6.6 0 1 0 0 1.2h4.454v1.519H4.854V2.531h1.173a.6.6 0 0 0 0-1.2H4.614a.961.961 0 0 0-.958.958v2a.951.951 0 0 0 .878.95v7.741L.7 16.189a1.416 1.416 0 0 0-.5 1.086v3.911a1.415 1.415 0 0 0 .814 1.285 1.4 1.4 0 0 0 1.5-.192l.567-.471v14.3l-.016 4.742h35.091zM5.74 5.245H9.4v3.648l-3.66 3.074zm31.2 34.4H4.295v-18.81l16.061-13.2a.41.41 0 0 1 .527 0l16.061 13.2V39.65zM21.641 6.714a1.623 1.623 0 0 0-2.051 0L1.765 21.362a.23.23 0 0 1-.239.032.216.216 0 0 1-.128-.2v-3.911a.225.225 0 0 1 .08-.168L20.348 1.27a.432.432 0 0 1 .543 0l18.87 15.837a.225.225 0 0 1 .08.168v3.911a.223.223 0 0 1-.367.168z" transform="translate(3.529 3.739)" style="fill:#333a60"/>
            </g>
        </g>
    </g>
</svg>
