<svg xmlns="http://www.w3.org/2000/svg" width="28" height="28" viewBox="0 0 28 28">
    <g data-name="Estate Agent">
        <path data-name="Rectangle 91" d="M0 0h28v28H0z" style="fill:none"/>
        <g data-name="Group 29336" transform="translate(2.894 2.894)">
            <path data-name="Path 40639" d="M132.3 228.478c-.277.188-.833.638-1.305 1.029-.44.364-.807.676-.807.676l-.3.006s-1.745-1.374-2.243-1.707a.556.556 0 0 0 .435-.543v-3.179h3.8v3.178a.557.557 0 0 0 .42.54z" transform="translate(-122.28 -215.05)" style="fill:#ffb09e"/>
            <path data-name="Path 40640" d="M141.6 228.478c-.277.188-.833.638-1.305 1.029a.556.556 0 0 1-.23-.451v-.91a.179.179 0 0 0-.206-.177 4.014 4.014 0 0 1-.576.042 3.963 3.963 0 0 1-1.9-.481v-2.77h3.8v3.178a.557.557 0 0 0 .417.54z" transform="translate(-131.575 -215.05)" style="fill:#ffa78f"/>
            <path data-name="Path 40641" d="m12.844 308.135-2.81.491a3.06 3.06 0 0 0-2.534 3.015v4.714a.556.556 0 0 0 .556.556h14.3a.556.556 0 0 0 .556-.556v-4.714a3.06 3.06 0 0 0-2.533-3.014l-2.81-.491a23.471 23.471 0 0 0-2.154 1.7l-.3.006s-2.178-1.723-2.271-1.707z" transform="translate(-7.5 -294.699)" style="fill:#ffe177"/>
            <path data-name="Path 40642" d="M209.183 311.64v4.714a.556.556 0 0 1-.556.556h-1.117a.556.556 0 0 0 .556-.556v-3.6a3.06 3.06 0 0 0-2.533-3.015l-2.811-.491a.556.556 0 0 1-.232-.1 9.311 9.311 0 0 1 1.349-1.019l2.811.491a3.06 3.06 0 0 1 2.533 3.02z" transform="translate(-193.775 -294.698)" style="fill:#ffd15b"/>
            <path data-name="Path 40643" d="M69.528 14.059H58.7v-1.568A4.991 4.991 0 0 1 63.687 7.5h.851a4.991 4.991 0 0 1 4.991 4.991z" transform="translate(-56.408 -7.5)" style="fill:#8d9ca8"/>
            <path data-name="Path 40644" d="M173.355 12.49v1.569h-1.117V12.49a4.991 4.991 0 0 0-4.858-4.99h.983a4.991 4.991 0 0 1 4.992 4.99z" transform="translate(-160.235 -7.5)" style="fill:#7a8c98"/>
            <path data-name="Path 40645" d="M68.287 128.977h-8.35a1.241 1.241 0 0 1-1.241-1.241 1.241 1.241 0 0 1 1.241-1.241h8.35a1.241 1.241 0 0 1 1.241 1.241 1.241 1.241 0 0 1-1.241 1.241z" transform="translate(-56.408 -121.178)" style="fill:#ffa78f"/>
            <path data-name="Path 40646" d="M91.008 80.293c1.175-.472 1.768-.733 2.073-1.245a.268.268 0 0 1 .44-.032c.914 1.165 2.665 1.318 5.025 1.461a.268.268 0 0 1 .252.268v2.793a3.98 3.98 0 1 1-7.959.05v-3.046a.269.269 0 0 1 .169-.249z" transform="translate(-87.115 -75.723)" style="fill:#ffcebf"/>
            <path data-name="Path 40647" d="M171.9 112.771v2.793a4.012 4.012 0 0 1-3.95 4.03 3.941 3.941 0 0 1-.589-.04 4.022 4.022 0 0 0 3.422-3.99v-2.926a.268.268 0 0 0-.087-.2c.305.023.623.043.952.063a.268.268 0 0 1 .252.27z" transform="translate(-160.215 -107.75)" style="fill:#ffb09e"/>
            <path data-name="Path 40648" d="M149.876 375.309h1.024l.866 5.774h-2.756z" transform="translate(-142.686 -358.871)" style="fill:#fd8087"/>
            <path data-name="Path 40649" d="M157.344 349.723h2.014l-.182 1.369a.447.447 0 0 1-.443.388h-.764a.447.447 0 0 1-.443-.388z" transform="translate(-150.647 -334.428)" style="fill:#fe646f"/>
            <path data-name="Path 40650" d="m183.305 289.639-.686-.686a.268.268 0 0 0-.379 0l-2.285 2.285a.268.268 0 0 0 0 .379l.686.686a.268.268 0 0 0 .379 0l2.285-2.285a.268.268 0 0 0 0-.379z" transform="translate(-172.173 -276.299)" style="fill:#c4e2ff"/>
            <path data-name="Path 40651" d="m101.488 289.639.686-.686a.268.268 0 0 1 .379 0l2.285 2.285a.268.268 0 0 1 0 .379l-.686.686a.268.268 0 0 1-.379 0l-2.285-2.285a.268.268 0 0 1 0-.379z" transform="translate(-97.213 -276.299)" style="fill:#c4e2ff"/>
            <path data-name="Path 40652" d="M327.462 282.694h-7.625v-6.855l3.812-2.273 3.813 2.273z" transform="translate(-305.878 -261.674)" style="fill:#eaf6ff"/>
            <path data-name="Path 40653" d="M466.567 310.2v6.856h-1.117v-7.526z" transform="translate(-444.983 -296.031)" style="fill:#d8ecfe"/>
            <path data-name="Path 40654" d="M377.5 393.308h-2.713V389.4a.358.358 0 0 1 .358-.358h2a.358.358 0 0 1 .358.358z" transform="translate(-358.373 -371.991)" style="fill:#fd8087"/>
            <path data-name="Path 40655" d="M403.607 389.04h-1.117a.357.357 0 0 1 .358.358v3.902h1.117v-3.9a.357.357 0 0 0-.358-.36z" transform="translate(-384.837 -371.988)" style="fill:#fe646f"/>
            <path data-name="Path 40656" d="M314.4 472.975h-8.345a.268.268 0 0 1-.268-.268v-.939a.268.268 0 0 1 .268-.268h8.345a.268.268 0 0 1 .268.268v.939a.268.268 0 0 1-.268.268z" transform="translate(-292.452 -450.763)" style="fill:#8d9ca8"/>
            <path data-name="Path 40657" d="M474.885 471.768v.939a.268.268 0 0 1-.268.268H473.5a.268.268 0 0 0 .268-.268v-.939a.268.268 0 0 0-.268-.268h1.117a.268.268 0 0 1 .268.268z" transform="translate(-452.673 -450.763)" style="fill:#7a8c98"/>
            <path data-name="Path 40658" d="m314.39 263.432-4.073-2.53a.179.179 0 0 0-.189 0l-4.073 2.53a.179.179 0 0 1-.273-.152v-1.006a.179.179 0 0 1 .084-.152l4.262-2.647a.179.179 0 0 1 .189 0l4.262 2.647a.179.179 0 0 1 .084.152v1.006a.179.179 0 0 1-.273.152z" transform="translate(-292.451 -248.187)" style="fill:#fd8087"/>
            <circle data-name="Ellipse 1219" cx=".782" cy=".782" r=".782" transform="translate(16.99 14.284)" style="fill:#60b7ff"/>
            <path data-name="Path 40659" d="M475.019 304.606v1.006a.179.179 0 0 1-.273.152l-1.106-.687a.179.179 0 0 0 .262-.158v-1.007a.179.179 0 0 0-.084-.152l1.117.694a.179.179 0 0 1 .084.152z" transform="translate(-452.807 -290.519)" style="fill:#fe646f"/>
        </g>
        <g data-name="Group 29337" transform="translate(2.894 2.894)">
            <path data-name="Path 40660" d="M58.7 14.059V12.49a4.99 4.99 0 0 1 4.99-4.99h.851a4.991 4.991 0 0 1 4.991 4.99v1.569" transform="translate(-56.412 -7.5)" style="stroke:#333a60;stroke-linecap:round;stroke-linejoin:round;stroke-miterlimit:10;stroke-width:.7px;fill:none"/>
            <path data-name="Line 626" transform="translate(2.613 22.212)" style="stroke:#333a60;stroke-linecap:round;stroke-linejoin:round;stroke-miterlimit:10;stroke-width:.7px;fill:none" d="M10.986 0H0"/>
            <path data-name="Path 40661" d="M8.548 321.119h-.492a.556.556 0 0 1-.556-.556v-4.714a3.06 3.06 0 0 1 2.533-3.015l1.685-.295" transform="translate(-7.5 -298.907)" style="stroke:#333a60;stroke-linecap:round;stroke-linejoin:round;stroke-miterlimit:10;stroke-width:.7px;fill:none"/>
            <path data-name="Path 40662" d="m257.87 312.54 1.685.295a3.075 3.075 0 0 1 .461.118" transform="translate(-246.68 -298.907)" style="stroke:#333a60;stroke-linecap:round;stroke-linejoin:round;stroke-miterlimit:10;stroke-width:.7px;fill:none"/>
            <path data-name="Path 40663" d="M222.38 261.54v1.535a.551.551 0 0 0 .035.194" transform="translate(-212.776 -250.186)" style="stroke:#333a60;stroke-linecap:round;stroke-linejoin:round;stroke-miterlimit:10;stroke-width:.7px;fill:none"/>
            <path data-name="Path 40664" d="M136.635 261.72v1.527a.563.563 0 0 1-.035.194" transform="translate(-130.83 -250.358)" style="stroke:#333a60;stroke-linecap:round;stroke-linejoin:round;stroke-miterlimit:10;stroke-width:.7px;fill:none"/>
            <path data-name="Path 40665" d="M268.92 126.5h.2a1.24 1.24 0 1 1 0 2.481h-.2" transform="translate(-257.236 -121.182)" style="stroke:#333a60;stroke-linecap:round;stroke-linejoin:round;stroke-miterlimit:10;stroke-width:.7px;fill:none"/>
            <path data-name="Path 40666" d="M60.136 128.981h-.2a1.24 1.24 0 1 1 0-2.481h.2" transform="translate(-56.412 -121.182)" style="stroke:#333a60;stroke-linecap:round;stroke-linejoin:round;stroke-miterlimit:10;stroke-width:.7px;fill:none"/>
            <path data-name="Line 627" transform="translate(3.658 18.617)" style="stroke:#333a60;stroke-linecap:round;stroke-linejoin:round;stroke-miterlimit:10;stroke-width:.7px;fill:none" d="M0 3.595.002 0"/>
            <path data-name="Path 40667" d="M91.008 80.293c1.175-.472 1.768-.733 2.073-1.245a.268.268 0 0 1 .44-.032c.914 1.165 2.665 1.318 5.025 1.461a.268.268 0 0 1 .252.268v2.793a3.98 3.98 0 1 1-7.959.05v-3.046a.269.269 0 0 1 .169-.249z" transform="translate(-87.115 -75.723)" style="stroke:#333a60;stroke-linecap:round;stroke-linejoin:round;stroke-miterlimit:10;stroke-width:.7px;fill:none"/>
            <path data-name="Line 628" transform="translate(11.749 18.618)" style="stroke:#333a60;stroke-linecap:round;stroke-linejoin:round;stroke-miterlimit:10;stroke-width:.7px;fill:none" d="M.002 0 0 3.595"/>
            <path data-name="Line 629" transform="translate(9.554 6.358)" style="stroke:#333a60;stroke-linecap:round;stroke-linejoin:round;stroke-miterlimit:10;stroke-width:.7px;fill:none" d="M0 0v.402"/>
            <path data-name="Line 630" transform="translate(5.854 6.358)" style="stroke:#333a60;stroke-linecap:round;stroke-linejoin:round;stroke-miterlimit:10;stroke-width:.7px;fill:none" d="M0 0v.402"/>
            <path data-name="Path 40668" d="M162.562 223.694a1.316 1.316 0 0 0 1.548 0" transform="translate(-155.632 -214.032)" style="stroke:#333a60;stroke-linecap:round;stroke-linejoin:round;stroke-miterlimit:10;stroke-width:.7px;fill:none"/>
            <path data-name="Line 631" transform="translate(7.592 8.447)" style="stroke:#333a60;stroke-linecap:round;stroke-linejoin:round;stroke-miterlimit:10;stroke-width:.7px;fill:none" d="M0 0h.223"/>
            <path data-name="Line 632" transform="translate(6.324 16.997)" style="stroke:#333a60;stroke-linecap:round;stroke-linejoin:round;stroke-miterlimit:10;stroke-width:.7px;fill:none" d="M.783 0 0 5.215"/>
            <path data-name="Line 633" transform="translate(8.301 16.997)" style="stroke:#333a60;stroke-linecap:round;stroke-linejoin:round;stroke-miterlimit:10;stroke-width:.7px;fill:none" d="M.783 5.215 0 0"/>
            <path data-name="Path 40669" d="m159.67 367.23.078.587a.447.447 0 0 0 .443.388h.765a.447.447 0 0 0 .443-.388l.078-.587" transform="translate(-152.869 -351.153)" style="stroke:#333a60;stroke-linecap:round;stroke-linejoin:round;stroke-miterlimit:10;stroke-width:.7px;fill:none"/>
            <path data-name="Path 40670" d="m183.305 289.639-.686-.686a.268.268 0 0 0-.379 0l-2.285 2.285a.268.268 0 0 0 0 .379l.686.686a.268.268 0 0 0 .379 0l2.285-2.285a.268.268 0 0 0 0-.379z" transform="translate(-172.173 -276.299)" style="stroke:#333a60;stroke-linecap:round;stroke-linejoin:round;stroke-miterlimit:10;stroke-width:.7px;fill:none"/>
            <path data-name="Path 40671" d="m101.488 289.639.686-.686a.268.268 0 0 1 .379 0l2.285 2.285a.268.268 0 0 1 0 .379l-.686.686a.268.268 0 0 1-.379 0l-2.285-2.285a.268.268 0 0 1 0-.379z" transform="translate(-97.213 -276.299)" style="stroke:#333a60;stroke-linecap:round;stroke-linejoin:round;stroke-miterlimit:10;stroke-width:.7px;fill:none"/>
            <path data-name="Line 634" transform="translate(6.767 18.263)" style="stroke:#333a60;stroke-linecap:round;stroke-linejoin:round;stroke-miterlimit:10;stroke-width:.7px;fill:none" d="M1.724 0 0 1"/>
            <path data-name="Line 635" transform="translate(6.459 19.988)" style="stroke:#333a60;stroke-linecap:round;stroke-linejoin:round;stroke-miterlimit:10;stroke-width:.7px;fill:none" d="M2.291 0 0 1.329"/>
            <path data-name="Line 636" transform="translate(13.959 15.024)" style="stroke:#333a60;stroke-linecap:round;stroke-linejoin:round;stroke-miterlimit:10;stroke-width:.7px;fill:none" d="M0 5.714V0"/>
            <path data-name="Line 637" transform="translate(21.584 15.024)" style="stroke:#333a60;stroke-linecap:round;stroke-linejoin:round;stroke-miterlimit:10;stroke-width:.7px;fill:none" d="M0 5.713V0"/>
            <path data-name="Path 40672" d="M374.79 392.725V389.4a.357.357 0 0 1 .358-.358h2a.357.357 0 0 1 .358.358v3.328" transform="translate(-358.375 -371.988)" style="stroke:#333a60;stroke-linecap:round;stroke-linejoin:round;stroke-miterlimit:10;stroke-width:.7px;fill:none"/>
            <path data-name="Path 40673" d="M314.4 472.975h-8.345a.268.268 0 0 1-.268-.268v-.939a.268.268 0 0 1 .268-.268h8.345a.268.268 0 0 1 .268.268v.939a.268.268 0 0 1-.268.268z" transform="translate(-292.452 -450.763)" style="stroke:#333a60;stroke-linecap:round;stroke-linejoin:round;stroke-miterlimit:10;stroke-width:.7px;fill:none"/>
            <path data-name="Path 40674" d="m313.977 261.751.6.373a.179.179 0 0 1 .084.152v1.006a.179.179 0 0 1-.273.152l-4.073-2.53a.179.179 0 0 0-.189 0l-4.073 2.53a.179.179 0 0 1-.273-.152v-1.006a.18.18 0 0 1 .084-.152l4.262-2.647a.179.179 0 0 1 .189 0l2.333 1.448" transform="translate(-292.449 -248.19)" style="stroke:#333a60;stroke-linecap:round;stroke-linejoin:round;stroke-miterlimit:10;stroke-width:.7px;fill:none"/>
            <circle data-name="Ellipse 1220" cx=".782" cy=".782" r=".782" transform="translate(16.99 14.284)" style="stroke:#333a60;stroke-linecap:round;stroke-linejoin:round;stroke-miterlimit:10;stroke-width:.7px;fill:none"/>
        </g>
    </g>
</svg>
